<?xml version="1.0" encoding="UTF-8"?>
<svg id="Capa_1" xmlns="http://www.w3.org/2000/svg" version="1.1" viewBox="0 0 1656.6 165.8">
  <!-- Generator: Adobe Illustrator 30.5.1, SVG Export Plug-In . SVG Version: 2.1.4 Build 3)  -->
  <defs>
    <style>
      .st0 {
        fill: #dbd8ce;
      }
    </style>
  </defs>
  <path class="st0" d="M73.6,3.4L0,162.4h42.8l14.1-32h85.1l14.2,32h42.6L125.5,3.4h-51.9ZM71.3,97.9l28.2-63.9,28.3,63.9h-56.5Z"/>
  <polygon class="st0" points="255 3.4 215 3.4 215 162.4 356.2 162.4 356.2 127 255 127 255 3.4"/>
  <polygon class="st0" points="418.8 97.7 509.2 97.7 509.2 68.1 418.8 68.1 413.7 36.3 514.9 36.3 514.9 3.4 370.6 3.4 382.9 82.9 370.6 162.4 516 162.4 516 129.5 413.7 129.5 418.8 97.7"/>
  <path class="st0" d="M640.9,93.5c0,11.7-2.9,20.9-8.6,27.6-5.7,6.6-14.9,10-27.7,10s-22.1-3.5-27.7-10.5c-5.6-7-8.4-17.1-8.4-30.2v-5.7h-39.2v8.9c0,15.3,3.1,28.3,9.4,39,6.3,10.7,15.1,19,26.4,24.7,11.3,5.7,24.4,8.6,39.4,8.6s28.4-2.8,40-8.3c11.5-5.5,20.5-13.5,26.8-24.1,6.4-10.5,9.5-23.2,9.5-38.1V3.4h-40.1v90.1Z"/>
  <path class="st0" d="M759.6,3.4l-73.6,159h42.8l14.1-32h85.1l14.2,32h42.6L811.5,3.4h-51.9ZM757.3,97.9l28.2-63.9,28.3,63.9h-56.5Z"/>
  <polygon class="st0" points="1035.4 117.2 952.9 3.4 901 3.4 901 162.4 939.8 162.4 939.8 46.3 1023.7 162.4 1074.2 162.4 1074.2 3.4 1035.4 3.4 1035.4 117.2"/>
  <path class="st0" d="M1231.7,13.4c-14-6.6-30.3-10-49-10h-77.6v159h77.6c18.7,0,35-3.3,49-10,14-6.6,24.9-15.9,32.8-27.9,7.8-11.9,11.8-25.8,11.8-41.7s-3.9-29.9-11.8-41.8-18.8-21.1-32.8-27.8ZM1229.6,106.1c-4.1,6.6-9.9,11.7-17.4,15.4-7.5,3.7-16.3,5.5-26.5,5.5h-40.7V38.8h40.7c10.2,0,19,1.8,26.5,5.5,7.5,3.7,13.3,8.8,17.4,15.3,4.1,6.5,6.1,14.3,6.1,23.3s-2.1,16.6-6.1,23.2Z"/>
  <path class="st0" d="M1423.8,97.3c8.9-4.2,15.8-10.1,20.8-17.6,4.9-7.5,7.4-16.2,7.4-26.1s-2.5-18.8-7.4-26.3c-4.9-7.5-11.9-13.4-20.8-17.6-8.9-4.2-19.3-6.4-31.2-6.4h-92.6v159h40.1v-58.7h25.4l45.2,58.7h46.4l-47.5-60.4c5.1-1.1,9.8-2.6,14.2-4.7ZM1340,33.9h47.3c7.5,0,13.4,1.7,17.8,5.2,4.4,3.5,6.6,8.3,6.6,14.5s-2.2,11.1-6.6,14.5c-4.4,3.5-10.3,5.2-17.8,5.2h-47.3v-39.4Z"/>
  <path class="st0" d="M1644.8,39.4c-7.8-12.4-18.8-22.1-32.9-29-14.1-6.9-30.4-10.4-49.1-10.4s-35,3.5-49.1,10.4c-14.1,6.9-25,16.6-32.8,29-7.8,12.4-11.7,26.9-11.7,43.5s3.9,31,11.7,43.5c7.8,12.4,18.7,22.1,32.8,29,14.1,6.9,30.4,10.4,49.1,10.4s35-3.5,49.1-10.4c14.1-6.9,25-16.6,32.9-29,7.8-12.4,11.8-26.9,11.8-43.5s-3.9-31-11.8-43.5ZM1609.6,108.1c-4.3,7.1-10.4,12.5-18.3,16.2-7.9,3.7-17.4,5.6-28.4,5.6s-20.3-1.9-28.2-5.6c-7.9-3.7-14.1-9.1-18.4-16.2-4.4-7.1-6.6-15.5-6.6-25.2s2.2-18.2,6.6-25.2c4.4-7.1,10.5-12.5,18.4-16.2,7.9-3.7,17.3-5.6,28.2-5.6s20.5,1.9,28.4,5.6c7.9,3.7,14,9.2,18.3,16.2,4.3,7.1,6.5,15.5,6.5,25.2s-2.2,18.2-6.5,25.2Z"/>
</svg>