<?xml version="1.0" encoding="UTF-8"?>
<svg id="Capa_2" data-name="Capa 2" xmlns="http://www.w3.org/2000/svg" viewBox="0 0 336.49 336.49">
  <defs>
    <style>
      .cls-1 {
        fill: none;
      }

      .cls-2 {
        fill: #dbd8ce;
      }
    </style>
  </defs>
  <g id="Capa_1-2" data-name="Capa 1">
    <g>
      <rect class="cls-1" width="336.49" height="336.49"/>
      <path class="cls-2" d="M327.77,270.92l-273.39,42.83c-1.6.25-3.17-.61-3.81-2.1L6,208.03c-.53-1.24-.32-2.68.57-3.71L161.18,23.93c1.52-1.78,4.32-1.62,5.63.32l103.79,153.24c2.2,3.25-1.71,7.13-4.95,4.91l-114.49-78.63c-1.79-1.23-4.26-.57-5.2,1.38l-89.39,185.58c-1.45,3,1.67,6.16,4.69,4.76l217.32-100.93c1.58-.73,3.46-.21,4.43,1.23l47.16,69.63c1.46,2.15.18,5.09-2.39,5.49Z"/>
    </g>
  </g>
</svg>