<?xml version="1.0" encoding="UTF-8"?>
<svg id="Capa_2" xmlns="http://www.w3.org/2000/svg" version="1.1" viewBox="0 0 151.7 35.6">
  <!-- Generator: Adobe Illustrator 30.5.1, SVG Export Plug-In . SVG Version: 2.1.4 Build 3)  -->
  <defs>
    <style>
      .st0 {
        fill: none;
      }

      .st1 {
        fill: #dbd8ce;
      }
    </style>
  </defs>
  <g id="Capa_1-2">
    <path class="st1" d="M39.7,27.6l-26.2,4.1c-.2,0-.3,0-.4-.2l-4.3-9.9v-.4L23.7,4c.1-.2.4-.2.5,0l9.9,14.7c.2.3-.2.7-.5.5l-11-7.5c-.2-.1-.4,0-.5.1l-8.6,17.8c-.1.3.2.6.4.5l20.8-9.7c0,0,.3,0,.4.1l4.5,6.7c0,.2,0,.5-.2.5h.3Z"/>
  </g>
  <rect class="st0" width="151.7" height="35.6"/>
</svg>