<?xml version="1.0" encoding="UTF-8"?>
<svg id="Capa_2" xmlns="http://www.w3.org/2000/svg" version="1.1" viewBox="0 0 151.7 35.6">
  <!-- Generator: Adobe Illustrator 30.5.1, SVG Export Plug-In . SVG Version: 2.1.4 Build 3)  -->
  <defs>
    <style>
      .st0 {
        fill: none;
      }

      .st1 {
        fill: #dbd8ce;
      }
    </style>
  </defs>
  <g id="Capa_1-2">
    <g>
      <g>
        <path class="st1" d="M57.5,11.2l7.4,14.7h-4.3l-1.5-3.2h-7.8l-1.5,3.2h-4.4l7.4-14.7h4.7,0ZM57.4,19.2l-2.2-4.8-2.3,4.8h4.5Z"/>
        <path class="st1" d="M82.7,22.3v3.6h-15.9v-14.7h3.9v11h12Z"/>
        <path class="st1" d="M101.7,11.2v3.6h-12.1v2h12.1v3.4h-12.1v1.9h12.1v3.6h-15.9v-14.7s15.9,0,15.9,0Z"/>
        <path class="st1" d="M117.6,11.2h4.1v7.3c0,6.8-5.1,7.3-7.7,7.3h-1.8c-2.6,0-7.7-.6-7.7-7.3h4.1c0,1.9.5,3.7,2.6,3.7h4c2.1,0,2.6-1.6,2.6-3.4v-7.5h0Z"/>
        <path class="st1" d="M142.8,18.6c0,6.8-5.1,7.3-7.7,7.3h-3.2c-2.6,0-7.7-.6-7.7-7.3s5.1-7.3,7.7-7.3h3.2c2.6,0,7.7.6,7.7,7.3ZM138.8,18.6c0-1.8-.5-3.6-2.6-3.6h-5.3c-2.1,0-2.6,1.8-2.6,3.6s.5,3.7,2.6,3.7h5.3c2.1,0,2.6-1.8,2.6-3.7Z"/>
      </g>
      <path class="st1" d="M39.7,27.6l-26.2,4.1c-.2,0-.3,0-.4-.2l-4.3-9.9c0-.1,0-.3,0-.4L23.7,4c.1-.2.4-.2.5,0l9.9,14.7c.2.3-.2.7-.5.5l-11-7.5c-.2-.1-.4,0-.5.1l-8.6,17.8c-.1.3.2.6.4.5l20.8-9.7c.1,0,.3,0,.4.1l4.5,6.7c.1.2,0,.5-.2.5Z"/>
    </g>
  </g>
  <rect class="st0" width="151.7" height="35.6"/>
</svg>