<svg xmlns="http://www.w3.org/2000/svg" xmlns:xlink="http://www.w3.org/1999/xlink" width="32" height="32" viewBox="0 0 32 32">
  <defs>
    <clipPath id="clip-path">
      <rect id="Rectángulo_25" data-name="Rectángulo 25" width="25.466" height="29.41" fill="#f5322c"/>
    </clipPath>
  </defs>
  <g id="Grupo_49" data-name="Grupo 49" transform="translate(799 -1152)">
    <g id="Grupo_21" data-name="Grupo 21" transform="translate(-796 1153)">
      <g id="Grupo_20" data-name="Grupo 20" transform="translate(0 0)" clip-path="url(#clip-path)">
        <path id="Trazado_70" data-name="Trazado 70" d="M14.788,25.433l0,2.006H20.7l-.031,1.971H6.9V27.439h5.913l0-2.014A13.851,13.851,0,0,1,1.922,4.579,14.183,14.183,0,0,1,6.3,0L7.382,1.641c-.431.3-.832.606-1.257.948l.688.693L5.421,4.675,4.742,4a11.876,11.876,0,0,0,1.026,16.32,11.865,11.865,0,0,0,15.7.406l-.684-.667,1.4-1.4.691.691.955-1.264,1.636,1.077a13.848,13.848,0,0,1-10.678,6.269" transform="translate(0 0)" fill="#f5322c"/>
        <path id="Trazado_71" data-name="Trazado 71" d="M26.578,7.66a9.859,9.859,0,1,0,9.86,9.86,9.859,9.859,0,0,0-9.86-9.86m0,17.747a7.888,7.888,0,1,1,7.887-7.887,7.888,7.888,0,0,1-7.887,7.887" transform="translate(-12.778 -5.854)" fill="#f5322c"/>
      </g>
    </g>
    <rect id="Rectángulo_47" data-name="Rectángulo 47" width="32" height="32" transform="translate(-799 1152)" fill="none"/>
  </g>
</svg>
