<svg xmlns="http://www.w3.org/2000/svg" xmlns:xlink="http://www.w3.org/1999/xlink" width="32" height="32" viewBox="0 0 32 32">
  <defs>
    <clipPath id="clip-path">
      <rect id="Rectángulo_26" data-name="Rectángulo 26" width="28.645" height="29.983" fill="#f5322c"/>
    </clipPath>
  </defs>
  <g id="Grupo_48" data-name="Grupo 48" transform="translate(858 -1153)">
    <g id="Grupo_23" data-name="Grupo 23" transform="translate(-856 1154)">
      <g id="Grupo_23-2" data-name="Grupo 23" clip-path="url(#clip-path)">
        <path id="Trazado_72" data-name="Trazado 72" d="M27.164,14.99a4.968,4.968,0,0,1,.762-1.655,4,4,0,0,0,.664-2.964,4,4,0,0,0-2.338-2.084,5.141,5.141,0,0,1-1.546-.8,4.967,4.967,0,0,1-.32-1.663A4.046,4.046,0,0,0,23.129,2.9a4.012,4.012,0,0,0-3.056-.292,4.467,4.467,0,0,1-1.792.2,4.663,4.663,0,0,1-1.158-1.134A4.089,4.089,0,0,0,14.321,0a4.175,4.175,0,0,0-2.857,1.759,4.167,4.167,0,0,1-1.082,1.016,4.65,4.65,0,0,1-1.71-.2,4.009,4.009,0,0,0-3.13.287A4.108,4.108,0,0,0,4.255,5.884a4.991,4.991,0,0,1-.314,1.6,4.772,4.772,0,0,1-1.505.839A4.063,4.063,0,0,0,.065,10.388a4,4,0,0,0,.713,3.089,4.729,4.729,0,0,1,.7,1.513,5.067,5.067,0,0,1-.787,1.7,3.951,3.951,0,0,0-.636,2.923A4.009,4.009,0,0,0,2.392,21.7a4.96,4.96,0,0,1,1.527.833,4.419,4.419,0,0,1,.336,1.633,3.993,3.993,0,0,0,1.273,2.966,4.048,4.048,0,0,0,3.239.243,4.259,4.259,0,0,1,1.6-.156,5.166,5.166,0,0,1,1.2,1.18,4.041,4.041,0,0,0,2.786,1.587,4.133,4.133,0,0,0,2.8-1.726,4.438,4.438,0,0,1,1.117-1.049,4.635,4.635,0,0,1,1.707.2A4.016,4.016,0,0,0,23.1,27.12,4.069,4.069,0,0,0,24.339,24.3a4.861,4.861,0,0,1,.333-1.759,5.28,5.28,0,0,1,1.617-.874,4,4,0,0,0,2.248-2.027,4.059,4.059,0,0,0-.74-3.127,4.418,4.418,0,0,1-.634-1.519M24.79,19.983a3.765,3.765,0,0,0-2.469,3.45c-.085.847-.145,2.122-.694,2.032l-1.314-.21a5.737,5.737,0,0,0-2.628-.06c-1.942.606-2.854,3.218-3.693,2.507-1.079-.91-1.683-2.147-3.179-2.57a4.4,4.4,0,0,0-1.915.03l-1.808.3a.436.436,0,0,1-.464-.3,13.264,13.264,0,0,1-.273-1.745,3.773,3.773,0,0,0-2.491-3.447c-.516-.235-.992-.456-1.48-.732a.478.478,0,0,1-.227-.615c.251-.519.516-.981.8-1.486a4.03,4.03,0,0,0-.21-4.619,12.794,12.794,0,0,1-.62-1.2.426.426,0,0,1,.167-.53C4.184,9.656,6.031,9.6,6.328,6.49A12.86,12.86,0,0,1,6.58,4.84c.112-.5,1.005-.295,1.754-.115A3.953,3.953,0,0,0,12.892,3.4c.585-.666,1.262-1.538,1.762-1.117a11.13,11.13,0,0,1,1.164,1.188c1.327,1.5,2.584,1.748,4.54,1.237a3.156,3.156,0,0,1,1.576-.079,5.277,5.277,0,0,1,.311,1.508c.153,1.953.71,3.054,2.538,3.876a15.859,15.859,0,0,1,1.524.762c.885.514-1.246,2.073-1.248,4.223a4.774,4.774,0,0,0,.675,2.171l.809,1.551c.235.445-1.035.945-1.751,1.267" transform="translate(0 0)" fill="#f5322c"/>
        <path id="Trazado_73" data-name="Trazado 73" d="M43.779,40.977,37.368,47.4a1.084,1.084,0,0,1-1.6,0l-2.652-2.66a1.071,1.071,0,0,1,1.53-1.5l1.92,1.928L42.3,39.431a1.072,1.072,0,0,1,1.48,1.546" transform="translate(-23.85 -28.47)" fill="#f5322c"/>
      </g>
    </g>
    <rect id="Rectángulo_46" data-name="Rectángulo 46" width="32" height="32" transform="translate(-858 1153)" fill="none"/>
  </g>
</svg>
